/vscmnt/brussel_pixiu_data/_data_brussel/112/vsc11236/PredSimResults/SUBJ04mtu3D/weighted-trackIG/worker_02.mot
version=1
nRows=7
nColumns=50
inDegrees=yes
endheader
                time	         pelvis_tilt	         pelvis_list	     pelvis_rotation	           pelvis_tx	           pelvis_ty	           pelvis_tz	       hip_flexion_r	     hip_adduction_r	      hip_rotation_r	        knee_angle_r	       ankle_angle_r	         mtp_angle_r	       hip_flexion_l	     hip_adduction_l	      hip_rotation_l	        knee_angle_l	       ankle_angle_l	         mtp_angle_l	    lumbar_extension	      lumbar_bending	     lumbar_rotation	 ercspn_r/activation	 intobl_r/activation	 extobl_r/activation	    abd_r/activation	    add_r/activation	hamstrings_r/activation	bifemsh_r/activation	glut_max_r/activation	iliopsoas_r/activation	rect_fem_r/activation	  vasti_r/activation	gastroc_r/activation	 soleus_r/activation	tib_ant_r/activation	 ercspn_l/activation	 intobl_l/activation	 extobl_l/activation	    abd_l/activation	    add_l/activation	hamstrings_l/activation	bifemsh_l/activation	glut_max_l/activation	iliopsoas_l/activation	rect_fem_l/activation	  vasti_l/activation	gastroc_l/activation	 soleus_l/activation	tib_ant_l/activation	
          0.00000000	         -5.39758970	         -4.81796972	         12.31459416	          0.00000000	          0.88445829	         -0.02164128	         24.44014711	          0.30929366	         -5.06501069	          2.33993309	          5.28747311	          0.21235428	         -8.23580633	         -4.33813633	         15.91560205	         -8.05663350	         12.64882685	         22.20775735	         -2.96920630	          1.67360171	         -0.92102788	          0.09463331	          0.15824024	          0.02150912	          0.02673657	          0.09397250	          0.02753615	          0.01000000	          0.00999999	          0.06013769	          0.01220284	          0.02070093	          0.00999999	          0.00999999	          0.26377262	          0.02746342	          0.00999999	          0.00999999	          0.09657869	          0.00999999	          0.01897590	          0.14276655	          0.07206775	          0.33657402	          0.00999999	          0.00999999	          0.30669741	          0.27537113	          0.01517767	
          0.01391864	         -5.52381211	         -4.71032753	         12.20383356	          0.01460404	          0.88255919	         -0.02055494	         24.10223601	          0.57553957	         -3.81387610	          1.77847622	          4.94914572	          0.22027042	         -8.47974895	         -4.20891909	         15.10282217	         -9.27436352	         12.48808677	         23.82988928	         -2.68897104	          1.95566830	         -1.17454224	          0.07681417	          0.15716460	          0.01745902	          0.02170216	          0.12152516	          0.02501175	          0.00999999	          0.01000002	          0.04881396	          0.01000000	          0.01680301	          0.01517767	          0.01535051	          0.26368560	          0.05284532	          0.00999999	          0.00999999	          0.07839323	          0.01668927	          0.01554049	          0.11588408	          0.06507915	          0.30555080	          0.00999999	          0.00999999	          0.28577572	          0.27219995	          0.01231976	
          0.02783728	         -5.63353943	         -4.59521469	         12.02692683	          0.02960147	          0.88080479	         -0.01936990	         23.64110924	          0.84935209	         -2.60576876	          1.15727843	          4.56969062	          0.21181353	         -8.67380535	         -4.05524203	         14.23228489	        -10.66881321	         12.21122565	         25.50152274	         -2.39081098	          2.25252795	         -1.42227949	          0.06604534	          0.16841580	          0.01417155	          0.02471271	          0.09864237	          0.02893850	          0.04453616	          0.01959767	          0.03962245	          0.00999999	          0.01363906	          0.01231977	          0.01246006	          0.29854917	          0.07222090	          0.00999999	          0.00999999	          0.06363204	          0.03208069	          0.01290964	          0.09406348	          0.05306660	          0.26778509	          0.00999999	          0.00999999	          0.26107119	          0.26215055	          0.00999999	
          0.04175592	         -5.72746525	         -4.47922508	         11.77302827	          0.04480482	          0.87940068	         -0.01807628	         23.06799299	          1.14141865	         -1.46698595	          0.73762381	          4.04637542	          0.19993639	         -8.75552679	         -3.87337779	         13.31308421	        -12.31693450	         11.76428802	         27.21466823	         -2.09369791	          2.57329551	         -1.66213642	          0.06967225	          0.15216891	          0.01150309	          0.04805012	          0.08006833	          0.02975076	          0.03615014	          0.03037173	          0.03216167	          0.00999999	          0.01107087	          0.00999999	          0.01011387	          0.32437473	          0.09590442	          0.00999999	          0.00999999	          0.05165034	          0.03307308	          0.01294832	          0.07635163	          0.04307433	          0.22539574	          0.00999999	          0.00999999	          0.22757354	          0.24444826	          0.00999999	
          0.05567456	         -5.80551930	         -4.36176995	         11.44117316	          0.06006919	          0.87852237	         -0.01669155	         22.43005630	          1.45148009	         -0.40605957	          0.39907307	          3.56701777	          0.18557830	         -8.68971300	         -3.65944846	         12.33429698	        -14.24586556	         11.09084789	         28.93192553	         -1.80889218	          2.91830225	         -1.89164875	          0.06581023	          0.12715688	          0.00999999	          0.06689610	          0.06593694	          0.03349944	          0.02934319	          0.03539756	          0.02610573	          0.00999999	          0.01727560	          0.00999999	          0.00999999	          0.34699181	          0.11372982	          0.00999999	          0.00999999	          0.04192475	          0.03458688	          0.01392174	          0.06197487	          0.03496358	          0.19460378	          0.00999999	          0.00999999	          0.18472219	          0.21603219	          0.00999999	
          0.06959320	         -5.86762563	         -4.23936498	         11.03549211	          0.07529805	          0.87824297	         -0.01523460	         21.74376444	          1.76972117	          0.57677474	          0.10030422	          3.20293185	          0.17208984	         -8.46120199	         -3.41311697	         11.28087881	        -16.45658046	         10.18064958	         30.55366590	         -1.54216976	          3.28026977	         -2.10692067	          0.06005716	          0.10321365	          0.00999999	          0.08680973	          0.06436201	          0.03801130	          0.02381796	          0.03182811	          0.02119011	          0.00999999	          0.02256595	          0.00999999	          0.00999999	          0.35873478	          0.12560525	          0.00999999	          0.00999999	          0.03403045	          0.04199652	          0.01880519	          0.05030520	          0.02838005	          0.17453382	          0.00999999	          0.00999999	          0.14993960	          0.17535403	          0.00999999	
          0.08351184	         -5.91381371	         -4.10558578	         10.56218787	          0.09040198	          0.87854524	         -0.01372518	         21.01744970	          2.08096416	          1.48461017	         -0.17282501	          2.97766692	          0.16178812	         -8.05678840	         -3.13376332	         10.13472676	        -18.95338828	          9.07488168	         31.91402751	         -1.30037364	          3.64825924	         -2.30497556	          0.05177799	          0.08377886	          0.00999999	          0.10652625	          0.06537685	          0.04093930	          0.01933312	          0.02583498	          0.01720008	          0.00999999	          0.02188496	          0.00999999	          0.00999999	          0.35745909	          0.13540705	          0.00999999	          0.00999999	          0.02762263	          0.05335126	          0.02381926	          0.04083290	          0.02303618	          0.15758025	          0.00999999	          0.00999999	          0.12170646	          0.14233544	          0.00999999	
